# xmcd
#
# Track frame offsets:
#  150
#  20169
#  44800
#  63570
#  80237
#  99362
#  117347
#  138115
#  155625
#  172497
#  192532
#  217480
#
# Disc length: 3121 seconds
#
# Revision: 0
# Processed by: cddbd v1.4PL0 Copyright (c) Steve Scherf et al.
# Submitted via: AltoMP3_Maker 3.0
#
DISCID=c60c2f0c
DTITLE=Marjan - Kavire Del
DYEAR=1900
DGENRE=
TTITLE0=Kavire Del
TTITLE1=Gomshodeh
TTITLE2=Ghesseh
TTITLE3=Ki Seda Kard Mano?
TTITLE4=Man Haminam
TTITLE5=Sekkeye Mah
TTITLE6=Khooneh Khali
TTITLE7=Parandeye Tanha
TTITLE8=Shookh
TTITLE9=Qomri
TTITLE10=Takye Bar Bud
TTITLE11=Jofte Soleyman
EXTD=
EXTT0=
EXTT1=
EXTT2=
EXTT3=
EXTT4=
EXTT5=
EXTT6=
EXTT7=
EXTT8=
EXTT9=
EXTT10=
EXTT11=
PLAYORDER=
